<svg version="1.0" xmlns="http://www.w3.org/2000/svg"
 width="40.000000pt" height="40.000000pt" viewBox="0 0 40.000000 40.000000"
 preserveAspectRatio="xMidYMid meet">

<g transform="translate(0.000000,40.000000) scale(0.100000,-0.100000)"
fill="orange" stroke="none">
<path d="M142 387 c-40 -15 -102 -64 -102 -81 0 -7 12 -18 26 -25 23 -10 30
-9 48 8 45 42 101 47 152 15 19 -11 24 -10 45 12 l24 26 -23 19 c-25 20 -84
39 -117 38 -11 0 -35 -6 -53 -12z"/>
<path d="M214 216 c-14 -37 0 -51 55 -56 l54 -5 -27 -32 c-15 -17 -42 -37 -61
-43 -31 -10 -35 -16 -35 -46 0 -32 2 -34 28 -28 83 20 141 73 162 147 20 72
14 77 -85 77 -65 0 -87 -3 -91 -14z"/>
</g>
</svg>
