
<svg version="1.0" xmlns="http://www.w3.org/2000/svg"
 width="40.000000pt" height="40.000000pt" viewBox="0 0 40.000000 40.000000"
 preserveAspectRatio="xMidYMid meet">

<g transform="translate(0.000000,40.000000) scale(0.100000,-0.100000)"
fill="red" stroke="none">
<path d="M125 381 c-72 -33 -125 -111 -125 -183 1 -97 103 -198 200 -198 98 0
200 102 200 200 0 73 -58 153 -132 184 -49 21 -94 20 -143 -3z m146 -90 c19
-15 24 -29 24 -64 0 -61 -35 -101 -81 -94 -28 5 -32 2 -43 -29 -19 -52 -35
-43 -26 14 4 26 10 67 14 92 5 36 10 45 26 45 18 0 20 -6 17 -47 -4 -54 15
-65 42 -26 24 34 20 75 -8 93 -51 33 -112 -12 -100 -73 7 -36 -9 -44 -26 -13
-17 33 -11 61 19 92 24 23 38 29 74 29 29 0 53 -7 68 -19z"/>
</g>
</svg>

